<svg version="1.0" xmlns="http://www.w3.org/2000/svg" width="1706.667" height="1584" viewBox="0 0 1280 1188"><path d="M783.5 1C728 6.9 677.1 30.6 631.1 72c-16 14.4-37.1 39.9-49.2 59.5-6.1 9.8-251.5 429.8-262.1 448.5-46.6 82.2-64.1 166.3-47.7 229.5 6.7 25.9 22.2 50.3 40.9 64.4 36.7 27.7 83.5 29.1 134.5 4.2 24.9-12.2 48.3-29.2 72.4-52.6 24.9-24.2 46.3-50.9 65.4-81.5 14.1-22.7 132.2-225.8 134-230.5 2.5-6.5 3.3-19.6 1.7-26.6-4.9-21.1-23.7-35.9-45.5-35.9-17.9 0-32 8.6-42.1 25.6-2.2 3.8-30.1 51.4-61.9 105.9-31.8 54.4-60.2 103-63.3 108-28.3 46.3-62.7 82.1-97.3 101.4-9.3 5.2-21.6 9.2-29.9 9.8-7.1.5-7.7.4-10.7-2.1-4.1-3.4-6.8-9.5-8.9-19.7-2.5-12.2-1.5-38.9 2-55.9 6.5-31.6 18.5-63.3 35.4-93.5 13.1-23.4 258.1-442.4 264-451.5 29.6-45.8 77-77.7 125-84.1 13.4-1.8 34.5-.6 46.7 2.5 12.5 3.3 27.9 10.7 38.3 18.6 50.3 37.9 62.4 119.1 28.3 189.5-6.1 12.7-373.9 643-382.2 655-46.4 67.3-139.5 92.1-214.4 57-11.4-5.3-76.7-42.5-90-51.3-20.6-13.6-43.9-40.1-55.4-63.1-23.8-47.5-24-103.5-.6-150.2 3.4-6.6 81.3-140.2 280.8-481.4 34.1-58.3 63.6-109.4 65.6-113.5 3.1-6.5 3.6-8.6 3.9-16.7.5-10.7-.6-16-5.2-24.8-7.7-14.8-24-24.5-41.1-24.5-12.9.1-23 4.4-32.5 14-5.7 5.7-10.3 13.1-39.1 62.5-18 30.8-94.2 161.3-169.4 290s-139 238-141.8 243c-15 26.5-25.8 59.6-30.3 92.5-2.4 17-2.4 49 0 66 5.6 41.2 19.8 79.1 42 112.4 11.1 16.5 18.7 25.8 33 40.1 22 22 32.6 29.4 81.5 57.5 62 35.6 71.9 40.2 103.5 48.5 25.8 6.8 35.8 7.9 67.6 7.9 30.8 0 40.3-1 65-7 35.6-8.8 75.4-28.5 103.6-51.4 19.2-15.7 39.4-37.8 53.1-58.5 6-9 372.9-636.4 381.6-652.5 14.6-27.1 26.1-62.2 31.4-96 2.2-14.5 2.5-57.6.5-71.5-6.5-43.2-20.8-78.8-44-109.5-7.2-9.5-23.6-26.5-32.7-34C908 23.5 874.6 8.6 838 2.5 826.8.6 795-.2 783.5 1z"/></svg>